<svg width="45" height="38" viewBox="0 0 45 38" fill="none" xmlns="http://www.w3.org/2000/svg">
<path d="M0 4.3421V37.1053H11.0526V22.8947L0 4.3421Z" fill="#57C25C"/>
<path d="M0.394737 0.394737H13.0263L22.8947 16.5789L30.3947 3.94737V21.7105C28.9474 19.8684 28.4211 17.7632 22.8947 16.5789C18.9474 16.5789 15.8684 17.6842 13.0263 22.1053L0.394737 0.394737Z" fill="#57C25C"/>
<path d="M45 0H32.7632V37.1053H45V0Z" fill="#57C25C"/>
<circle cx="22.0727" cy="25.7787" r="7.5" fill="#4CAF50" fill-opacity="0.24" stroke="#224800" stroke-width="1.57895"/>
<path d="M21.6777 19.0684H22.8619V20.0552C22.8619 20.3822 22.5969 20.6473 22.2698 20.6473C21.9428 20.6473 21.6777 20.3822 21.6777 20.0552V19.0684Z" fill="#244C06"/>
<path d="M28.793 25.3955V26.5797H27.8061C27.4791 26.5797 27.214 26.3146 27.214 25.9876C27.214 25.6606 27.4791 25.3955 27.8061 25.3955H28.793Z" fill="#244C06"/>
<path d="M22.8633 32.4893H21.6791V31.5024C21.6791 31.1754 21.9442 30.9103 22.2712 30.9103C22.5982 30.9103 22.8633 31.1754 22.8633 31.5024V32.4893Z" fill="#244C06"/>
<path d="M15.3633 25.384V26.5682H16.3501C16.6771 26.5682 16.9422 26.3031 16.9422 25.9761C16.9422 25.6491 16.6771 25.384 16.3501 25.384H15.3633Z" fill="#244C06"/>
<path d="M20.5397 26.0641L22.395 21.6114C22.4219 21.5466 22.5137 21.5466 22.5407 21.6114L24.396 26.0641C24.4176 26.1161 24.3794 26.1734 24.3231 26.1734H21.2836H20.6126C20.5562 26.1734 20.518 26.1161 20.5397 26.0641Z" fill="#4CAF50"/>
<path d="M24.3907 26.2851L22.5396 30.3575C22.5115 30.4192 22.4239 30.4192 22.3959 30.3575L20.5448 26.2851C20.521 26.2329 20.5592 26.1735 20.6166 26.1735H23.6519H24.3188C24.3762 26.1735 24.4144 26.2329 24.3907 26.2851Z" fill="white"/>
<path d="M22.1066 37.8945L20.7392 35.5261H23.474L22.1066 37.8945Z" fill="#4CAF50"/>
<circle cx="22.4672" cy="26.1735" r="0.789474" fill="#1E4204"/>
</svg>
